# xmcd
#
# Track frame offsets:
#	150
#	23238
#	44799
#	64037
#	88644
#	108808
#	138557
#	151983
#	168854
#	186001
#	201681
#	219926
#	241643
#	262750
#	299450
#
# Disc length: 4044 seconds
# Revision: 0
# Processed by: cddbd v1.5.2PL0 Copyright (c) Steve Scherf et al.
# Submitted via: dBpowerAMP V12.0
#
DISCID=d10fca0f
DTITLE=KRS-ONE - Playlist: The Very Best Of KRS-One
DYEAR=2010
DGENRE=Hip Hop
TTITLE0=I'm Still #1
TTITLE1=Jack Of Spades
TTITLE2=Sound Of Da Police
TTITLE3=You Must Learn (Live from Caucus Mountains Remix) [Extended Remix]
TTITLE4=Outta Here
TTITLE5=Love's Gonna Get'cha (Material Love)
TTITLE6=Black Cop
TTITLE7=Duck Down
TTITLE8=Ya Know The Rules
TTITLE9=We In There
TTITLE10=Rappers R.N. Dainja
TTITLE11=Step Into A World (Rapture's Delight)
TTITLE12=MCs Act Like They Don't Know
TTITLE13=My Philosophy
TTITLE14=DATA
EXTD=
EXTT0=
EXTT1=
EXTT2=
EXTT3=
EXTT4=
EXTT5=
EXTT6=
EXTT7=
EXTT8=
EXTT9=
EXTT10=
EXTT11=
EXTT12=
EXTT13=
EXTT14=
PLAYORDER=
